<svg width="124" height="40" viewBox="0 0 124 40" fill="none" xmlns="http://www.w3.org/2000/svg">
<path d="M15.3419 3.91457C15.9388 3.91872 16.5353 3.92287 17.1047 3.92287H22.8985C23.4679 3.92287 24.0644 3.91872 24.6613 3.91457C26.2681 3.90339 27.8773 3.89219 28.9664 3.96194C32.9313 4.21584 35.6657 6.61819 36.0172 10.7002C36.1006 12.1671 36.0986 13.9341 36.0962 16.018V16.0186C36.0958 16.3763 36.0954 16.7433 36.0954 17.1197V22.9135C36.0954 23.2899 36.0958 23.6569 36.0962 24.0146C36.0986 26.0988 36.1006 27.866 36.0172 29.333C35.6657 33.4151 32.9313 35.8174 28.9664 36.0713C27.8773 36.1411 26.2681 36.1299 24.6613 36.1187C24.0644 36.1145 23.4679 36.1104 22.8985 36.1104H17.1047C16.5353 36.1104 15.9388 36.1145 15.3419 36.1187C13.7351 36.1299 12.1259 36.1411 11.0368 36.0713C7.07192 35.8174 4.33754 33.4151 3.98598 29.333C3.90263 27.8662 3.90464 26.0991 3.90701 24.0152V24.0146C3.90742 23.6569 3.90784 23.2899 3.90784 22.9135V17.1197C3.90784 16.7433 3.90742 16.3763 3.90701 16.0186V16.018C3.90464 13.9341 3.90263 12.1671 3.98598 10.7002C4.33754 6.61819 7.07192 4.21584 11.0368 3.96194C12.1259 3.89219 13.7351 3.90339 15.3419 3.91457Z" fill="url(#paint0_linear_1_66)"/>
<g filter="url(#filter0_dddddd_1_66)">
<path d="M9.14062 15.3906C9.14062 14.5708 9.8052 13.9062 10.625 13.9062H21.0156C23.0867 13.9062 24.7656 15.5852 24.7656 17.6562V24.5703C24.7656 25.3901 24.101 26.0547 23.2812 26.0547H12.8906C10.8196 26.0547 9.14062 24.3758 9.14062 22.3047V15.3906Z" fill="url(#paint1_linear_1_66)"/>
<path d="M9.31641 15.3906C9.31641 14.6679 9.90228 14.082 10.625 14.082H21.0156C22.9896 14.082 24.5898 15.6823 24.5898 17.6562V24.5703C24.5898 25.293 24.004 25.8789 23.2812 25.8789H12.8906C10.9166 25.8789 9.31641 24.2787 9.31641 22.3047V15.3906Z" stroke="url(#paint2_linear_1_66)" stroke-width="0.351562"/>
</g>
<g filter="url(#filter1_dddddd_1_66)">
<path d="M25.7031 18.2073C25.7031 17.702 25.9205 17.2212 26.2999 16.8875L29.2769 14.2687C29.9077 13.7137 30.8984 14.1617 30.8984 15.0019V24.9888C30.8984 25.8212 29.9239 26.272 29.2896 25.733L26.5569 23.4113C26.0153 22.9511 25.7031 22.2763 25.7031 21.5656V18.2073Z" fill="url(#paint3_linear_1_66)"/>
<path d="M25.8789 18.2073C25.8789 17.7526 26.0746 17.3198 26.416 17.0195L29.393 14.4007C29.9103 13.9456 30.7227 14.3129 30.7227 15.0019V24.9888C30.7227 25.6713 29.9235 26.041 29.4034 25.5991L26.6707 23.2773C26.1684 22.8506 25.8789 22.2247 25.8789 21.5656V18.2073Z" stroke="url(#paint4_linear_1_66)" stroke-width="0.351562"/>
</g>
<path d="M40.4893 11.0909H45.5952L49.593 19.0036H49.7592L53.7571 11.0909H58.8629L51.9474 23.6847V30H47.4048V23.6847L40.4893 11.0909ZM77.3819 20.5455C77.3819 22.6259 76.9818 24.3894 76.1816 25.8359C75.3815 27.2824 74.2981 28.3812 72.9316 29.1321C71.5713 29.883 70.0448 30.2585 68.3521 30.2585C66.6532 30.2585 65.1236 29.88 63.7633 29.1229C62.403 28.3658 61.3227 27.267 60.5225 25.8267C59.7285 24.3802 59.3315 22.6198 59.3315 20.5455C59.3315 18.465 59.7285 16.7015 60.5225 15.255C61.3227 13.8085 62.403 12.7098 63.7633 11.9588C65.1236 11.2079 66.6532 10.8324 68.3521 10.8324C70.0448 10.8324 71.5713 11.2079 72.9316 11.9588C74.2981 12.7098 75.3815 13.8085 76.1816 15.255C76.9818 16.7015 77.3819 18.465 77.3819 20.5455ZM72.7101 20.5455C72.7101 19.3144 72.5346 18.2741 72.1838 17.4247C71.8391 16.5753 71.3405 15.9321 70.688 15.495C70.0417 15.058 69.2631 14.8395 68.3521 14.8395C67.4473 14.8395 66.6686 15.058 66.0162 15.495C65.3637 15.9321 64.862 16.5753 64.5112 17.4247C64.1665 18.2741 63.9941 19.3144 63.9941 20.5455C63.9941 21.7765 64.1665 22.8168 64.5112 23.6662C64.862 24.5156 65.3637 25.1589 66.0162 25.5959C66.6686 26.0329 67.4473 26.2514 68.3521 26.2514C69.2631 26.2514 70.0417 26.0329 70.688 25.5959C71.3405 25.1589 71.8391 24.5156 72.1838 23.6662C72.5346 22.8168 72.7101 21.7765 72.7101 20.5455ZM97.8976 20.5455C97.8976 22.6259 97.4975 24.3894 96.6973 25.8359C95.8971 27.2824 94.8137 28.3812 93.4473 29.1321C92.0869 29.883 90.5604 30.2585 88.8677 30.2585C87.1689 30.2585 85.6393 29.88 84.2789 29.1229C82.9186 28.3658 81.8384 27.267 81.0382 25.8267C80.2441 24.3802 79.8471 22.6198 79.8471 20.5455C79.8471 18.465 80.2441 16.7015 81.0382 15.255C81.8384 13.8085 82.9186 12.7098 84.2789 11.9588C85.6393 11.2079 87.1689 10.8324 88.8677 10.8324C90.5604 10.8324 92.0869 11.2079 93.4473 11.9588C94.8137 12.7098 95.8971 13.8085 96.6973 15.255C97.4975 16.7015 97.8976 18.465 97.8976 20.5455ZM93.2257 20.5455C93.2257 19.3144 93.0502 18.2741 92.6994 17.4247C92.3547 16.5753 91.8561 15.9321 91.2037 15.495C90.5574 15.058 89.7787 14.8395 88.8677 14.8395C87.9629 14.8395 87.1842 15.058 86.5318 15.495C85.8793 15.9321 85.3777 16.5753 85.0268 17.4247C84.6821 18.2741 84.5098 19.3144 84.5098 20.5455C84.5098 21.7765 84.6821 22.8168 85.0268 23.6662C85.3777 24.5156 85.8793 25.1589 86.5318 25.5959C87.1842 26.0329 87.9629 26.2514 88.8677 26.2514C89.7787 26.2514 90.5574 26.0329 91.2037 25.5959C91.8561 25.1589 92.3547 24.5156 92.6994 23.6662C93.0502 22.8168 93.2257 21.7765 93.2257 20.5455ZM100.566 11.0909H106.226L111.027 22.7983H111.248L116.05 11.0909H121.709V30H117.259V18.3849H117.102L112.559 29.88H109.716L105.173 18.3203H105.016V30H100.566V11.0909Z" fill="white"/>
<defs>
<filter id="filter0_dddddd_1_66" x="6.32812" y="12.8516" width="21.25" height="17.7734" filterUnits="userSpaceOnUse" color-interpolation-filters="sRGB">
<feFlood flood-opacity="0" result="BackgroundImageFix"/>
<feColorMatrix in="SourceAlpha" type="matrix" values="0 0 0 0 0 0 0 0 0 0 0 0 0 0 0 0 0 0 127 0" result="hardAlpha"/>
<feOffset dy="0.0964726"/>
<feGaussianBlur stdDeviation="0.0355378"/>
<feColorMatrix type="matrix" values="0 0 0 0 0.0509804 0 0 0 0 0.121569 0 0 0 0 0.396078 0 0 0 0.189957 0"/>
<feBlend mode="multiply" in2="BackgroundImageFix" result="effect1_dropShadow_1_66"/>
<feColorMatrix in="SourceAlpha" type="matrix" values="0 0 0 0 0 0 0 0 0 0 0 0 0 0 0 0 0 0 127 0" result="hardAlpha"/>
<feOffset dy="0.189277"/>
<feGaussianBlur stdDeviation="0.0790384"/>
<feColorMatrix type="matrix" values="0 0 0 0 0.0509804 0 0 0 0 0.121569 0 0 0 0 0.396078 0 0 0 0.368551 0"/>
<feBlend mode="multiply" in2="effect1_dropShadow_1_66" result="effect2_dropShadow_1_66"/>
<feColorMatrix in="SourceAlpha" type="matrix" values="0 0 0 0 0 0 0 0 0 0 0 0 0 0 0 0 0 0 127 0" result="hardAlpha"/>
<feOffset dy="0.29109"/>
<feGaussianBlur stdDeviation="0.135364"/>
<feColorMatrix type="matrix" values="0 0 0 0 0.0509804 0 0 0 0 0.121569 0 0 0 0 0.396078 0 0 0 0.3 0"/>
<feBlend mode="multiply" in2="effect2_dropShadow_1_66" result="effect3_dropShadow_1_66"/>
<feColorMatrix in="SourceAlpha" type="matrix" values="0 0 0 0 0 0 0 0 0 0 0 0 0 0 0 0 0 0 127 0" result="hardAlpha"/>
<feOffset dy="0.427121"/>
<feGaussianBlur stdDeviation="0.429883"/>
<feColorMatrix type="matrix" values="0 0 0 0 0.0509804 0 0 0 0 0.121569 0 0 0 0 0.396078 0 0 0 0.3 0"/>
<feBlend mode="multiply" in2="effect3_dropShadow_1_66" result="effect4_dropShadow_1_66"/>
<feColorMatrix in="SourceAlpha" type="matrix" values="0 0 0 0 0 0 0 0 0 0 0 0 0 0 0 0 0 0 127 0" result="hardAlpha"/>
<feOffset dy="0.664616"/>
<feGaussianBlur stdDeviation="0.799219"/>
<feColorMatrix type="matrix" values="0 0 0 0 0.0509804 0 0 0 0 0.121569 0 0 0 0 0.396078 0 0 0 0.29 0"/>
<feBlend mode="overlay" in2="effect4_dropShadow_1_66" result="effect5_dropShadow_1_66"/>
<feColorMatrix in="SourceAlpha" type="matrix" values="0 0 0 0 0 0 0 0 0 0 0 0 0 0 0 0 0 0 127 0" result="hardAlpha"/>
<feOffset dy="1.75781"/>
<feGaussianBlur stdDeviation="1.40625"/>
<feColorMatrix type="matrix" values="0 0 0 0 0.0509804 0 0 0 0 0.121569 0 0 0 0 0.396078 0 0 0 0.45 0"/>
<feBlend mode="multiply" in2="effect5_dropShadow_1_66" result="effect6_dropShadow_1_66"/>
<feBlend mode="normal" in="SourceGraphic" in2="effect6_dropShadow_1_66" result="shape"/>
</filter>
<filter id="filter1_dddddd_1_66" x="22.8906" y="12.9688" width="10.8203" height="17.5688" filterUnits="userSpaceOnUse" color-interpolation-filters="sRGB">
<feFlood flood-opacity="0" result="BackgroundImageFix"/>
<feColorMatrix in="SourceAlpha" type="matrix" values="0 0 0 0 0 0 0 0 0 0 0 0 0 0 0 0 0 0 127 0" result="hardAlpha"/>
<feOffset dy="0.0964726"/>
<feGaussianBlur stdDeviation="0.0355378"/>
<feColorMatrix type="matrix" values="0 0 0 0 0.0509804 0 0 0 0 0.121569 0 0 0 0 0.396078 0 0 0 0.189957 0"/>
<feBlend mode="multiply" in2="BackgroundImageFix" result="effect1_dropShadow_1_66"/>
<feColorMatrix in="SourceAlpha" type="matrix" values="0 0 0 0 0 0 0 0 0 0 0 0 0 0 0 0 0 0 127 0" result="hardAlpha"/>
<feOffset dy="0.189277"/>
<feGaussianBlur stdDeviation="0.0790384"/>
<feColorMatrix type="matrix" values="0 0 0 0 0.0509804 0 0 0 0 0.121569 0 0 0 0 0.396078 0 0 0 0.368551 0"/>
<feBlend mode="multiply" in2="effect1_dropShadow_1_66" result="effect2_dropShadow_1_66"/>
<feColorMatrix in="SourceAlpha" type="matrix" values="0 0 0 0 0 0 0 0 0 0 0 0 0 0 0 0 0 0 127 0" result="hardAlpha"/>
<feOffset dy="0.29109"/>
<feGaussianBlur stdDeviation="0.135364"/>
<feColorMatrix type="matrix" values="0 0 0 0 0.0509804 0 0 0 0 0.121569 0 0 0 0 0.396078 0 0 0 0.3 0"/>
<feBlend mode="multiply" in2="effect2_dropShadow_1_66" result="effect3_dropShadow_1_66"/>
<feColorMatrix in="SourceAlpha" type="matrix" values="0 0 0 0 0 0 0 0 0 0 0 0 0 0 0 0 0 0 127 0" result="hardAlpha"/>
<feOffset dy="0.427121"/>
<feGaussianBlur stdDeviation="0.429883"/>
<feColorMatrix type="matrix" values="0 0 0 0 0.0509804 0 0 0 0 0.121569 0 0 0 0 0.396078 0 0 0 0.3 0"/>
<feBlend mode="multiply" in2="effect3_dropShadow_1_66" result="effect4_dropShadow_1_66"/>
<feColorMatrix in="SourceAlpha" type="matrix" values="0 0 0 0 0 0 0 0 0 0 0 0 0 0 0 0 0 0 127 0" result="hardAlpha"/>
<feOffset dy="0.664616"/>
<feGaussianBlur stdDeviation="0.799219"/>
<feColorMatrix type="matrix" values="0 0 0 0 0.0509804 0 0 0 0 0.121569 0 0 0 0 0.396078 0 0 0 0.29 0"/>
<feBlend mode="overlay" in2="effect4_dropShadow_1_66" result="effect5_dropShadow_1_66"/>
<feColorMatrix in="SourceAlpha" type="matrix" values="0 0 0 0 0 0 0 0 0 0 0 0 0 0 0 0 0 0 127 0" result="hardAlpha"/>
<feOffset dy="1.75781"/>
<feGaussianBlur stdDeviation="1.40625"/>
<feColorMatrix type="matrix" values="0 0 0 0 0.0509804 0 0 0 0 0.121569 0 0 0 0 0.396078 0 0 0 0.45 0"/>
<feBlend mode="multiply" in2="effect5_dropShadow_1_66" result="effect6_dropShadow_1_66"/>
<feBlend mode="normal" in="SourceGraphic" in2="effect6_dropShadow_1_66" result="shape"/>
</filter>
<linearGradient id="paint0_linear_1_66" x1="20.0016" y1="3.90625" x2="20.0016" y2="36.127" gradientUnits="userSpaceOnUse">
<stop stop-color="#A4C1FF"/>
<stop offset="1" stop-color="#0E78F9"/>
</linearGradient>
<linearGradient id="paint1_linear_1_66" x1="16.9531" y1="13.9062" x2="16.9531" y2="26.0547" gradientUnits="userSpaceOnUse">
<stop stop-color="white"/>
<stop offset="1" stop-color="#C5D4F7"/>
</linearGradient>
<linearGradient id="paint2_linear_1_66" x1="16.9531" y1="13.9062" x2="16.9531" y2="26.0547" gradientUnits="userSpaceOnUse">
<stop stop-color="white"/>
<stop offset="1" stop-color="#637ACA"/>
</linearGradient>
<linearGradient id="paint3_linear_1_66" x1="28.3008" y1="14.0234" x2="28.3008" y2="25.9673" gradientUnits="userSpaceOnUse">
<stop stop-color="white"/>
<stop offset="1" stop-color="#C5D4F7"/>
</linearGradient>
<linearGradient id="paint4_linear_1_66" x1="28.3008" y1="14.0234" x2="28.3008" y2="25.9673" gradientUnits="userSpaceOnUse">
<stop stop-color="white"/>
<stop offset="1" stop-color="#637ACA"/>
</linearGradient>
</defs>
</svg>
